<?xml version="1.0" encoding="UTF-8"?><svg id="uuid-da1ae9af-54af-4861-ad68-46b96aab1202" xmlns="http://www.w3.org/2000/svg" width="50" height="50" viewBox="0 0 50 50"><path id="uuid-c1a9cf9c-5f2b-4332-84e6-2357978eccd2" d="M42.328,25.107c0,8.524-6.199,15.783-14.619,17.117v-12.11h4.037l.766-5.003h-4.803v-3.252c-.123-1.378.893-2.595,2.271-2.718.184-.016.369-.013.553.012h2.182v-4.266c-1.284-.209-2.581-.325-3.882-.345-3.369-.254-6.306,2.272-6.559,5.641-.028.37-.022.741.017,1.109v3.816h-4.397v5.003h4.397v12.11c-9.452-1.496-15.902-10.371-14.406-19.823,1.496-9.452,10.371-15.902,19.823-14.406,8.418,1.332,14.617,8.589,14.619,17.112" fill="#1a1818"/></svg>