<?xml version="1.0" encoding="UTF-8"?><svg id="uuid-3efb119d-49e4-4e59-8075-6bb04192fa1d" xmlns="http://www.w3.org/2000/svg" width="50" height="50" viewBox="0 0 50 50"><path id="uuid-954ead95-ace4-4a16-b6db-0e755cd7d6c9" d="M29.906,42.222h-9.488c-.046-.016-.093-.026-.141-.029-.457-.017-.918.017-1.38-.035-.259-.026-.518-.029-.771-.035-.374-.001-.748-.024-1.12-.069-.25-.026-.504-.038-.75-.078-.592-.087-1.178-.215-1.753-.383-.681-.205-1.339-.479-1.965-.818-.602-.338-1.16-.748-1.663-1.22-.378-.349-.725-.731-1.035-1.142-.525-.701-.944-1.474-1.246-2.296-.371-1.045-.603-2.134-.69-3.24-.035-.357-.052-.716-.069-1.073-.017-.53-.026-1.064-.038-1.594v-.116c-.006-.028-.015-.055-.026-.081v-10.023c.015-.034.025-.07.029-.107,0-.65.029-1.301.064-1.948.021-.435.052-.863.098-1.306.057-.51.145-1.017.262-1.516.22-.928.569-1.821,1.035-2.653.325-.568.719-1.095,1.171-1.568.238-.253.49-.493.754-.719.252-.216.515-.417.788-.604.446-.3.921-.556,1.418-.763.529-.229,1.077-.412,1.637-.547.644-.161,1.301-.266,1.963-.314.431-.026.863-.064,1.289-.09.233-.017.469-.026.702-.035.431-.012.863-.029,1.292-.035h6.105c1.263,0,2.52-.035,3.783.026.362.021.725.021,1.09.038.457.017.913.035,1.38.069.336.021.676.06,1.016.095.461.054.918.14,1.366.259.887.222,1.74.561,2.538,1.007.552.323,1.066.706,1.534,1.142.236.219.457.461.676.702.375.415.703.87.978,1.358.447.798.784,1.653,1.004,2.541.169.689.284,1.391.345,2.098.035.374.047.75.069,1.125.012.262.026.518.029.788.017.461.029.926.035,1.392v2.322c-.012,2.446.038,4.894-.029,7.34-.012.374-.029.75-.035,1.125,0,.478-.026.952-.069,1.427-.026.288-.035.581-.072.863-.074.593-.19,1.181-.345,1.758-.151.531-.341,1.05-.569,1.553-.306.669-.698,1.295-1.168,1.861-.412.494-.87.947-1.37,1.352-.755.596-1.604,1.063-2.512,1.38-.609.225-1.238.391-1.879.495-.435.069-.875.129-1.315.173-.345.035-.716.052-1.068.069-.483.017-.964.026-1.447.038h-.302c-.042.007-.083.017-.124.029M24.884,39.108h1.447c1.102-.012,2.206.029,3.312-.026.443-.026.892-.021,1.34-.038s.952-.047,1.427-.064c.475-.023.947-.081,1.413-.173.59-.108,1.164-.289,1.71-.538.474-.215.914-.499,1.306-.842.319-.281.608-.594.863-.935.363-.499.644-1.053.832-1.641.232-.718.378-1.462.435-2.215.038-.371.052-.737.069-1.108.017-.271.026-.547.035-.823.012-.518.035-1.035.035-1.553,0-2.96.043-5.915-.026-8.874-.012-.414-.021-.826-.035-1.24-.021-.483-.047-.961-.069-1.444-.021-.475-.079-.947-.173-1.413-.101-.551-.264-1.089-.486-1.603-.226-.514-.53-.991-.901-1.413-.284-.323-.6-.616-.944-.875-.501-.363-1.056-.644-1.646-.832-.715-.227-1.453-.372-2.201-.431-.371-.035-.745-.047-1.12-.069-.276-.012-.547-.026-.823-.035-.483-.012-.961-.035-1.444-.029-2.952,0-5.907-.043-8.857.026-.449,0-.895.017-1.344.035-.486.017-.973.047-1.456.064-.476.023-.95.081-1.418.173-.583.108-1.152.285-1.692.53-.482.22-.928.511-1.323.863-.318.276-.607.583-.863.918-.431.589-.749,1.252-.938,1.956-.213.772-.338,1.565-.374,2.365-.035.5-.055.995-.069,1.496-.017.581-.026,1.163-.035,1.744v1.292c.017,2.415-.035,4.83.029,7.246.012.449.021.895.035,1.344.021.492.047.982.069,1.473.025.469.083.935.173,1.396.108.608.295,1.198.555,1.758.342.728.836,1.375,1.447,1.898.543.46,1.166.815,1.839,1.047.742.256,1.514.416,2.296.478.345.038.711.052,1.068.069.267.017.538.026.806.035.486.012.973.029,1.461.035h4.218M24.987,33.86c-4.886-.004-8.843-3.968-8.84-8.853.004-4.886,3.968-8.843,8.853-8.84,4.886.004,8.843,3.968,8.84,8.853,0,.004,0,.008,0,.012-.014,4.879-3.974,8.827-8.853,8.827M30.739,25.024c.008-3.172-2.557-5.749-5.729-5.757-3.172-.008-5.749,2.557-5.757,5.729-.008,3.172,2.557,5.749,5.729,5.757,0,0,.001,0,.002,0,3.167.011,5.744-2.547,5.755-5.714,0-.005,0-.01,0-.016M34.17,13.759c-1.143,0-2.07.927-2.07,2.07h0c0,1.143.926,2.071,2.069,2.071,1.143,0,2.071-.926,2.071-2.069v-.002c0-1.139-.921-2.064-2.06-2.07" fill="#1a1818"/></svg>