<?xml version="1.0" encoding="UTF-8"?>
<svg id="uuid-ef28abaa-4e21-4072-abe7-f4263beea951" data-name="Layer_1" xmlns="http://www.w3.org/2000/svg" width="224.014mm" height="146.403mm" viewBox="0 0 635 415">
  <path d="M212.611,115.778l4.667-.778v14l-30.667,6.222v-15l4.444-.889c1.889-.333,2.444-1,2.444-2.889V43.778c0-1.889-.333-2.556-1.556-2.889-3-.556-4,3.889-4,17.778v7.889l-12-.889V22.667l51.556,10.444v35.667l-11.778-.889v-6.556c0-12.333-.889-16.556-3.556-17.111-1.111-.222-1.556.222-1.556,2v68.222c0,1.222.556,1.556,2,1.333ZM414.167,114.222l3.333.667v14l-27.333-5.556v-13.111l4,.667c.889.111,1.111-.333.889-1.667l-.923-5.902-10.564-1.018-.735,4.586c-.222,1.556.111,2.111,1.556,2.333l3.778.778v12.889l-28.222-5.556c-9.333-1.778-12.444-5.556-12.444-15.111v-8.889c0-4.222-1.778-5.556-7.333-5.556h-2.444v11.333c0,1.778.556,2.444,2,2.667l5.111.778v11.667l-28.444-5.778v-10.444l4.222.667c1,.111,1.333-.333,1.333-1.778v-34.444c0-1-.333-1.222-1.222-1.111l-4.333.667v-10.444l25.111-5.111c16.889-3.444,22.444.333,22.444,15.111v5.111c0,7.111-1.889,10.667-7.444,14.222,5.778,2.444,7.667,6,7.667,14.444v8c0,2,.778,2.778,3.111,3.111,1.778.222,2.444-.222,2.667-1.778l12.778-66.444,14.556-3.111,14.667,76.222c.333,1.889.889,2.667,2.222,2.889ZM346.833,62c0-3.778-1.222-4.778-4.889-4.222l-2.667.444c-1.111.222-1.556.778-1.556,2v16.444h2.889c4.667,0,6.222-1.222,6.222-4.889v-9.778ZM392.051,90.017l-3.218-20.573-3.259,20.339,6.477.234ZM315.5,68.222v10.444c0,13.778-5.556,18.667-22.333,19.556l-3,.111v3.444c0,.778.222,1,.667.889l6.222-1v11.111l-51.778,10.444v-12.889l2.889-.556c1.333-.222,1.778-.778,1.556-2.333l-.716-4.841-10.456.893-1.05,6.282c-.222,1.222.111,1.667,1.444,1.556l3.667-.444v12.889l-23.111,4.778v-13.889l2.667-.556c1-.222,1.444-.889,1.778-2.556l14.222-76.333,14.889,3.111,13.556,66.333c.222,1.444.778,1.889,2,1.667l2.889-.444c1.333-.222,1.778-.778,1.778-2.111v-48c0-1.111-.333-1.444-1.333-1.556l-4-.778v-12.111l25.333,5.111c16.667,3.333,22.222,8.778,22.222,21.778ZM247.136,89.962l-2.969-20.073-3.394,20.306,6.363-.233ZM297.944,63c0-3.444-1.222-4.778-5.111-5.333l-1.333-.222c-1-.222-1.333,0-1.333,1.111v28.667l2.111-.111c4.222-.333,5.667-1.667,5.667-5.111v-19ZM435.944,27.333v14.889l3.556-.667c1.444-.333,1.889.222,1.556,2.333l-6.444,48.444-6-45.778c-.333-2.222.111-3.111,1.778-3.444l3.111-.667v-14.667l-28,5.778v13.778l3.778-.667c1.444-.333,2,0,2.222,1.333l14.111,82.778,14.556,2.778,14.444-93c.222-1.111.444-1.556,1.111-1.667l3.333-.667v-15.556l-23.111,4.667ZM115.75,168.75h60.5v23.5h-9.25c-2.25,0-2.75.75-2.75,3.25v149c0,2.5.5,3.25,2.75,3.25h9.25v23.5h-60.5v-23.5h9.25c2.25,0,2.75-.75,2.75-3.25v-149c0-2.5-.5-3.25-2.75-3.25h-9.25v-23.5ZM90.25,315.5c0,17.75-5.25,33.75-22.75,33.75h-9.5c-3.5,0-3.75-1.25-2.25-4.75l53-153.25v-22.5H14.75v82h22.5v-26.25c0-17.75,5.25-33.75,19.25-33.75h9c3.25,0,4,1.25,2.75,4.25L13.75,348.75v22.5h97v-82.5h-20.5v26.75ZM76.75,166.75l21.75-43h-16.5l-18,20.5q-.5.5-1,0l-18-20.5h-16.5l21.75,43h26.5ZM372.75,315.5c0,14-1.5,32.25-14.25,32.25h-9c-4.5,0-7.25-2-7.25-5.75v-58.25h1.75c5.75,0,6.25,3.75,6.25,10.25v14.25h16v-70.5h-16.5v14.25c0,5.75-.75,8.25-5.75,8.25h-1.75v-61.75c0-4.5,1.75-6.25,6.75-6.25h8c13.25,0,14.75,18.25,14.75,32.75v26.25h21v-82.5h-101v23.5h11.75c1.5,0,2.25.75,2.25,3.25v149c0,2.5-.75,3.25-2.25,3.25h-11.75v23.5h101.5v-78.5h-20.5v22.75ZM511.75,168.75v82h21l.5-26.25c.5-22.25,2.75-32.25,9.75-32.25h2c2.5,0,3.25,1.25,3.25,4.25v148c0,2.5-.75,3.25-2.75,3.25h-11.75v23.5h65.5v-23.5h-11.75c-2,0-2.75-.75-2.75-3.25v-148c0-3,1-4.25,3.25-4.25h2c7,0,9.25,10,9.75,32.25l.5,26.25h21v-82h-109.5ZM511,347.75h5.75v23.5h-18.75c-18.25,0-26.75-13.25-26.75-30.75v-39c0-11-5.25-17.75-15.75-17.75h-6.75v60.75c0,2.5.75,3.25,3.25,3.25h9.75v23.5h-60.5v-23.5h8.75c2.5,0,3.25-.75,3.25-3.25v-149c0-2.5-.75-3.25-3.25-3.25h-8.75v-23.5h55.75c31.25,0,48.25,16.5,48.25,44.75v20.5c0,15-6,27.5-18.5,35,11.5,6.25,19,17.5,19,34.5v37c0,5,1.75,7.25,5.25,7.25ZM468.75,206.5c0-10.5-3.25-14.25-11.75-14.25h-4c-3,0-4.25.75-4.25,4.75v63.25h6.75c9.5,0,13.25-4.75,13.25-15.25v-38.5ZM289.25,312v11c0,27-15,48.25-50.75,48.25h-57.25v-23.5h9.25c2,0,2.75-.75,2.75-2.75v-149.5c0-2.5-.75-3.25-2.75-3.25h-9.25v-23.5h55.25c33.25,0,48.75,18.75,48.75,44.75v20.5c0,15.5-7.5,29.25-20.75,37,16.75,8,24.75,22.5,24.75,41ZM227.75,260.25h7.25c10,0,14.25-4.75,14.25-15.25v-38c0-10.5-3.75-14.75-12.75-14.75h-4c-3.25,0-4.75,1-4.75,4.75v63.25ZM252.25,300c0-11-4.75-15.75-14.75-15.75h-9.75v57.75c0,4,2.25,5.75,6.75,5.75h4c9,0,13.75-4.75,13.75-14.75v-33Z" fill="#ffcb05"/>
  <path d="M248.396,91l-8.991.375,4.762-28.708,4.229,28.333ZM388.833,62.222l-4.577,28.604,9.109.374-4.532-28.978ZM299.056,82v-19c0-4.222-1.445-5.667-6-6.444l-1.333-.222c-2-.333-2.667.333-2.667,2.222v29.889l3.333-.222c5-.333,6.667-1.778,6.667-6.222ZM347.944,71.778v-9.778c0-4.889-1.555-6.111-6.222-5.333l-2.667.444c-1.778.333-2.445,1-2.445,3.111v17.556h4c5.556,0,7.333-1.556,7.333-6ZM457,191h-4c-3.5,0-5.5,1.5-5.5,6v64.5h8c10,0,14.5-5.5,14.5-16.5v-38.5c0-11-4-15.5-13-15.5ZM250.5,245v-38c0-11-4.5-16-14-16h-4c-3.5,0-6,1.5-6,6v64.5h8.5c10.5,0,15.5-5.5,15.5-16.5ZM598.5,301.345v32.655h14.5v51l-44.325,30h-284.75v-8.968c-8.856,5.816-20.217,8.968-33.575,8.968H47.625L0,385v-38.584l21.657-60.998-20.657-20.918v-109.5h27.873L6.096,110h45.211l12.193,13.935,12.193-13.935h45.211l-22.777,45h59.373V0l160,36.444L477.5,0v157.458c7.835,2.025,14.714,5.266,20.5,9.606v-12.064h137v109.5l-36.5,36.845ZM406.611,46l2.445-.444c2.222-.444,3.222.111,3.555,2.222l14,82,12.667,2.444,14.222-91.778c.222-1.778.667-2.444,2-2.667l2.444-.445v-13.333l-20.889,4.222v12.667l2.222-.444c2.667-.556,3.333.444,2.889,3.556l-7.556,56.889-7.111-54.222c-.444-3.111.222-4.222,2.667-4.667l2.222-.444v-12.444l-25.778,5.333v11.556ZM317.5,107.556l26.222,5.333v-9.333l-4.222-.667c-2.111-.333-2.889-1.444-2.889-3.778v-12.444h3.556c6.333,0,8.444,1.667,8.444,6.667v8.889c0,8.667,2.889,12.333,11.556,14l26.889,5.333v-10.667l-2.889-.556c-2.333-.444-2.889-1.222-2.445-3.667l.891-5.565,12.489,1.198,1.065,6.811c.333,2.333-.111,3.222-2.222,2.889l-2.667-.444v10.889l25.111,5.111v-11.778l-2.445-.445c-1.889-.333-2.667-1.444-3.111-3.778l-14.445-75.111-12.667,2.667-12.667,65.778c-.445,2.444-1.445,3.111-4,2.667-3-.444-4-1.556-4-4.222v-8c0-8.444-2.222-12-9.111-14.222,6.667-3.556,8.889-7.222,8.889-14.444v-5.111c0-13.778-5.222-17.222-21.111-14l-24.222,4.889v8.222l3.111-.445c1.889-.222,2.445.333,2.445,2.222v34.444c0,2.333-.667,3.222-2.667,2.889l-2.889-.445v8.222ZM239.056,36.556l-14,75.222c-.445,2.222-1.111,3.111-2.667,3.444l-1.778.333v11.667l20.889-4.333v-10.778l-2.444.333c-2.445.333-3.111-.222-2.667-2.889l1.177-7.098,12.385-1.032.882,5.908c.333,2.445-.222,3.222-2.445,3.556l-2,.333v10.667l49.555-10v-8.889l-4.889.778c-1.445.222-2-.222-2-2v-4.445l4-.222c16-.889,21.333-5.778,21.333-18.444v-10.445c0-12.222-5.333-17.444-21.333-20.667l-24-4.889v9.889l3.111.556c1.667.333,2.222.889,2.222,2.667v48c0,2.111-.667,2.889-2.667,3.222l-2.889.444c-2.111.333-2.889-.444-3.333-2.556l-13.333-65.667-13.111-2.667ZM177.056,64.667l9.778.667v-6.667c0-14.889,1.333-19.556,5.333-18.889,1.889.444,2.444,1.444,2.444,4v72.667c0,2.444-.778,3.556-3.333,4l-3.556.667v12.778l28.445-5.778v-11.778l-3.333.556c-2.445.444-3.333-.111-3.333-2.444V46.222c0-2.778.778-3.555,2.889-3.111,3.333.667,4.445,5.222,4.445,18.222v5.556l9.555.667v-33.556l-49.333-10v40.667ZM179.451,155h57.049c16.904,0,30.999,4.309,41.5,12.191v-12.191h177.549l-138.049-31.444-138.049,31.444ZM30.5,125l20.5,40.5h25l20.5-40.5h-14l-17.5,20c-1,1-2,1-3,0l-17.5-20h-14ZM109.5,290h-18v25.5c0,18-5.5,35-24,35h-9.5c-4.5,0-5-2.5-3.5-6.5l53-153v-21H16v79.5h20v-25c0-18,5.5-35,20.5-35h9c4,0,5.25,2.5,4,6L15,349v21h94.5v-80ZM175,170h-58v21h8c3,0,4,1.5,4,4.5v149c0,3-1,4.5-4,4.5h-8v21h58v-21h-8c-3,0-4-1.5-4-4.5v-149c0-3,1-4.5,4-4.5h8v-21ZM288,312c0-19-8.5-33.5-26.5-41,14.5-7,22.5-21,22.5-37v-20.5c0-25.5-15-43.5-47.5-43.5h-54v21h8c2.5,0,4,1.5,4,4.5v149.5c0,2.5-1.5,4-4,4h-8v21h56c35,0,49.5-20.5,49.5-47v-11ZM392,294h-18v21.5c0,14-1.5,33.5-15.5,33.5h-9c-5,0-8.5-2.5-8.5-7v-59.5h3c7,0,7.5,5,7.5,11.5v13h13.5v-68h-14v13c0,6-1,9.5-7,9.5h-3v-63c0-5,2.5-7.5,8-7.5h8c14.5,0,16,19.5,16,34v25h18.5v-80h-98.5v21h10.5c2,0,3.5,1.5,3.5,4.5v149c0,3-1.5,4.5-3.5,4.5h-10.5v21h99v-76ZM515.5,349h-4.5c-4,0-6.5-3-6.5-8.5v-37c0-17.5-8-28.5-20.5-34.5,13.5-7,20-19.5,20-35v-20.5c0-27.5-16.5-43.5-47-43.5h-54.5v21h7.5c3,0,4.5,1.5,4.5,4.5v149c0,3-1.5,4.5-4.5,4.5h-7.5v21h58v-21h-8.5c-3,0-4.5-1.5-4.5-4.5v-62h8c11,0,17,7.5,17,19v39c0,17,8,29.5,25.5,29.5h17.5v-21ZM583.5,344.5v-148c0-3.5,1.5-5.5,4.5-5.5h2c8,0,10.5,11,11,33.5l.5,25h18.5v-79.5h-107v79.5h18.5l.5-25c.5-22.5,3-33.5,11-33.5h2c3,0,4.5,2,4.5,5.5v148c0,3-1.5,4.5-4,4.5h-10.5v21h63v-21h-10.5c-2.5,0-4-1.5-4-4.5ZM237.5,283h-11v59c0,4.5,3,7,8,7h4c9.5,0,15-5.5,15-16v-33c0-11.5-5.5-17-16-17Z"/>
</svg>