<?xml version="1.0" encoding="UTF-8"?><svg id="uuid-ff7e430b-e010-4cd3-9825-dd3fe7746f8e" xmlns="http://www.w3.org/2000/svg" width="50" height="50" viewBox="0 0 50 50"><path id="uuid-a96b20fb-a654-4fd9-a0a8-a97543015a23" d="M36.202,15.15c-.233-.121-.461-.254-.68-.397-.636-.422-1.22-.918-1.739-1.477-1.017-1.142-1.697-2.544-1.963-4.051h0c-.097-.474-.121-.961-.071-1.442h-5.914v22.873c0,.305,0,.611-.014.913v.171c-.125,1.671-1.078,3.17-2.539,3.99-.744.426-1.587.649-2.445.645-2.773,0-5.022-2.248-5.022-5.022s2.248-5.022,5.022-5.022c.522,0,1.041.082,1.537.245v-6.022c-3.043-.395-6.113.503-8.463,2.476-1.019.886-1.877,1.942-2.536,3.121-.828,1.527-1.275,3.231-1.304,4.968-.015,1.336.199,2.666.633,3.93v.012c.392,1.049.933,2.037,1.606,2.933.732.927,1.596,1.741,2.565,2.415v-.021l.014.012c1.794,1.178,3.892,1.81,6.038,1.817,1.549-.001,3.08-.339,4.485-.99,2.587-1.206,4.603-3.371,5.622-6.038.432-1.211.673-2.482.714-3.768v-12.122c.069.043,1.025.676,1.025.676,1.103.648,2.292,1.139,3.531,1.456,1.19.274,2.403.439,3.623.495v-5.865c-1.299.018-2.582-.296-3.726-.911" fill="#1a1818"/></svg>